<svg xmlns="http://www.w3.org/2000/svg" xml:space="preserve" width="355.62802" height="300" viewBox="0 0 355.62801 300"><path d="M0 0a11.29 11.29 0 0 1 .45 3.167c0 6.359-5.156 11.514-11.512 11.514-6.361 0-11.516-5.155-11.516-11.514 0-1.094.15-2.151.435-3.151z" style="fill:#ed1a2a;fill-opacity:1;fill-rule:nonzero;stroke:none" transform="matrix(11.2448 0 0 -11.2448 301.776 165.085)"/><path d="M0 0h-31.626v-2.288h16.906l-10.303-1.693.025-1.973 7.491-.485-2.871-.629-.027-2.216 8.639-1.589.664 2.204-3.124.425 6.639 1.268v2.19l-6.099.338L0-2.225Z" style="fill:#ed1a2a;fill-opacity:1;fill-rule:nonzero;stroke:none" transform="matrix(11.2448 0 0 -11.2448 355.628 177.735)"/></svg>